<?xml version="1.0" standalone="no"?>
<!DOCTYPE svg PUBLIC "-//W3C//DTD SVG 20010904//EN"
 "http://www.w3.org/TR/2001/REC-SVG-20010904/DTD/svg10.dtd">
<svg version="1.0" xmlns="http://www.w3.org/2000/svg"
 width="32.000000pt" height="32.000000pt" viewBox="0 0 32.000000 32.000000"
 preserveAspectRatio="xMidYMid meet">

<g transform="translate(0.000000,32.000000) scale(0.100000,-0.100000)"
fill="#000000" stroke="none">
<path d="M10 300 c0 -5 4 -10 9 -10 6 0 13 5 16 10 3 6 -1 10 -9 10 -9 0 -16
-4 -16 -10z"/>
<path d="M87 282 c-22 -22 -27 -38 -27 -76 0 -34 3 -45 12 -40 6 4 32 7 56 7
29 -1 40 2 31 8 -8 5 -9 9 -4 9 22 1 -22 20 -45 20 -23 -1 -24 -2 -7 -14 17
-13 16 -14 -7 -12 -21 1 -25 5 -20 21 10 32 23 43 60 50 50 9 94 -3 105 -28 7
-17 8 -12 4 18 -8 50 -27 65 -85 65 -38 0 -51 -5 -73 -28z"/>
<path d="M190 185 c7 -8 18 -15 24 -15 6 0 5 4 -3 9 -11 7 -11 9 0 14 8 3 3 6
-10 6 -20 1 -21 -1 -11 -14z"/>
<path d="M246 177 c3 -10 9 -15 12 -12 3 3 0 11 -7 18 -10 9 -11 8 -5 -6z"/>
<path d="M32 144 c14 -48 13 -49 -9 -46 -21 3 -23 -1 -23 -48 0 -50 0 -50 28
-44 55 14 73 24 65 36 -4 7 5 5 20 -4 35 -24 62 -23 100 5 32 23 59 28 73 14
12 -12 24 -8 24 8 0 8 -7 15 -15 15 -8 0 -15 5 -15 10 0 6 -8 10 -17 9 -11 0
-13 -3 -5 -6 6 -2 9 -9 6 -14 -4 -6 -10 -6 -18 1 -10 7 -18 4 -32 -15 -22 -29
-41 -32 -47 -8 -4 17 -5 17 -6 1 -2 -26 -13 -22 -51 17 -22 23 -36 31 -41 24
-4 -7 -10 2 -14 20 -3 17 -11 34 -17 37 -7 5 -9 0 -6 -12z"/>
<path d="M134 95 c-23 -18 -11 -20 16 -3 16 10 24 10 43 -1 20 -13 21 -13 8 2
-17 21 -41 22 -67 2z"/>
</g>
</svg>
